<svg id="5ebfb2d2-2ebf-4f1d-918b-ceb738c7aa19" data-name="Layer 1" xmlns="http://www.w3.org/2000/svg" viewBox="0 0 1198.76 1391.89"><defs><style>.\31 0bf4ef6-7830-4907-a6da-b9ed2349c010{fill:#f9c542;}.d902d3d2-335d-499a-8382-c04d72892cd7{fill:#f7941d;}.\31 2a6d452-6bd5-4c74-b3db-3d225fae15f9{fill:#33c4f1;}.c891020b-b760-450f-9895-fe8c4e7971d6{fill:#27aae1;}.e757bb7b-8996-4294-be7d-06bd05a8c1b5{fill:#f15a29;}.b238f899-0723-4312-b03f-c52aef10c82c{fill:#fff;}</style></defs><title>logo</title><path class="10bf4ef6-7830-4907-a6da-b9ed2349c010" d="M968.32,910.35c-147.27,145.94-255,316.91-469.88,334.29A462.25,462.25,0,0,1,395,1057.32C670.81,1132,821.39,1034.57,968.32,910.35Z" transform="translate(-150.62 -54.06)"/><path class="d902d3d2-335d-499a-8382-c04d72892cd7" d="M1249,728.85c-323.5,141.47-369,512-669,586.3a450.83,450.83,0,0,1-81.56-70.52c214.83-17.37,322.61-188.34,469.88-334.29,36.12-30.53,72-62.67,109.49-94.31C1127.64,780.15,1183.55,749.64,1249,728.85Z" transform="translate(-150.62 -54.06)"/><path class="12a6d452-6bd5-4c74-b3db-3d225fae15f9" d="M1249,728.85c-293.61,166.93-312.31,515.78-567.85,637.89a462.54,462.54,0,0,0,69.13,19.11c222.3-131.08,254.83-446.69,518.84-610.49A458.62,458.62,0,0,0,1249,728.85Z" transform="translate(-150.62 -54.06)"/><path class="c891020b-b760-450f-9895-fe8c4e7971d6" d="M1269.1,775.36c-264,163.81-296.55,479.41-518.84,610.49a457.5,457.5,0,0,0,293.62-40.18C1255.56,1239.64,1349.61,992.32,1269.1,775.36Z" transform="translate(-150.62 -54.06)"/><path class="e757bb7b-8996-4294-be7d-06bd05a8c1b5" d="M1249,728.85c-293.61,166.93-312.31,515.78-567.85,637.89A457.1,457.1,0,0,1,580,1315.15C880,1240.83,925.48,870.32,1249,728.85Z" transform="translate(-150.62 -54.06)"/><path class="b238f899-0723-4312-b03f-c52aef10c82c" d="M1229.93,983.26a23.3,23.3,0,1,1-31.27-10.39A23.34,23.34,0,0,1,1229.93,983.26Z" transform="translate(-150.62 -54.06)"/><path class="b238f899-0723-4312-b03f-c52aef10c82c" d="M1222.34,1072.15a45.81,45.81,0,1,1-61.49-20.44A45.83,45.83,0,0,1,1222.34,1072.15Z" transform="translate(-150.62 -54.06)"/><path class="b238f899-0723-4312-b03f-c52aef10c82c" d="M872.08,675a29.81,29.81,0,1,1-40-13.32A29.8,29.8,0,0,1,872.08,675Z" transform="translate(-150.62 -54.06)"/><path class="b238f899-0723-4312-b03f-c52aef10c82c" d="M488.95,214.17a29.82,29.82,0,1,1-40-13.31A29.81,29.81,0,0,1,488.95,214.17Z" transform="translate(-150.62 -54.06)"/><path class="b238f899-0723-4312-b03f-c52aef10c82c" d="M733.31,622.83A35.46,35.46,0,1,1,685.71,607,35.48,35.48,0,0,1,733.31,622.83Z" transform="translate(-150.62 -54.06)"/><path class="b238f899-0723-4312-b03f-c52aef10c82c" d="M646.92,515.37a26.86,26.86,0,1,1-36-12A26.86,26.86,0,0,1,646.92,515.37Z" transform="translate(-150.62 -54.06)"/><path class="b238f899-0723-4312-b03f-c52aef10c82c" d="M520.65,344a26.86,26.86,0,1,1-36-12A26.87,26.87,0,0,1,520.65,344Z" transform="translate(-150.62 -54.06)"/><path class="b238f899-0723-4312-b03f-c52aef10c82c" d="M664.52,384.3a36.05,36.05,0,1,1-48.38-16.1A36,36,0,0,1,664.52,384.3Z" transform="translate(-150.62 -54.06)"/><path class="b238f899-0723-4312-b03f-c52aef10c82c" d="M549.39,74A36,36,0,1,1,501,57.88,36,36,0,0,1,549.39,74Z" transform="translate(-150.62 -54.06)"/><path class="b238f899-0723-4312-b03f-c52aef10c82c" d="M1317.32,757.47A512.69,512.69,0,0,0,1295,705.83c-5.38-10.69-11-21-16.53-30.45A510.2,510.2,0,0,0,787,426.18L731.6,315.59A89.66,89.66,0,0,0,753.34,207l-9.59-19.14A90.1,90.1,0,0,0,623,147.7L596.6,160.92l23,46L646,193.69a38.69,38.69,0,0,1,51.76,17.2L707.36,230a38.68,38.68,0,0,1-17.2,51.76L663.77,295l93.75,187.14c185.4-33,377.73,51.09,476.57,219.28,5.26,8.87,10.22,18.05,14.89,27.41a458.65,458.65,0,0,1,20.12,46.51c80.51,217-13.54,464.28-225.23,570.31a457.5,457.5,0,0,1-293.62,40.18,462.54,462.54,0,0,1-69.13-19.11A457.1,457.1,0,0,1,580,1315.15a450.82,450.82,0,0,1-81.56-70.52A462.25,462.25,0,0,1,395,1057.32C349,892,400.11,715,523.8,599.23L430.07,412.07l-26.39,13.22a38.66,38.66,0,0,1-51.75-17.22l-9.59-19.14a38.66,38.66,0,0,1,17.21-51.75L385.93,324l-23-46-26.38,13.22A90.09,90.09,0,0,0,296.35,412l9.58,19.14a89.66,89.66,0,0,0,100,47.6l55.37,110.56A508.85,508.85,0,0,0,363.11,746C285.32,756,225,790.41,188.39,846c-42.56,64.58-49.4,152.68-19.27,248.08,30.66,97.05,74,158.64,136.46,193.83,28.35,16,61.18,26.79,100.36,33.08,29.56,4.74,62.64,7.06,106,7.4q18.87,15.6,39.14,29.27a508.68,508.68,0,0,0,112.45,57.4,517.13,517.13,0,0,0,76.84,21.24c111.7,21.8,224.6,6.37,326.5-44.68C1300.41,1274.7,1408.07,1002,1317.32,757.47ZM335.64,1234.58c-48.08-27.09-82.43-77.59-108.12-158.92-24.47-77.47-20.2-147,12-195.93,22-33.41,57-56.4,102.44-67.6A511.68,511.68,0,0,0,447.65,1264.7C398,1260.54,364.82,1251,335.64,1234.58Z" transform="translate(-150.62 -54.06)"/></svg>